<svg xmlns="http://www.w3.org/2000/svg" width="1683" height="562"><g fill="none" fill-rule="evenodd"><path fill="#343D48" d="M1102.782 310.583h-102.275v-47.33h102.275v47.33zm-99.571-134.392h118.58v152.97H981.51v-84.499h121.272v-49.886h-99.571v-18.585zm-47.05 152.816H936.26v-65.754H852.98v65.756h-19.003V161.535h19.003v83.127h60.27v-43.483h19.404v43.483h23.498l.008 84.345zM692.012 176.19v18.585h99.283v49.886l-228.395.005.006-83.132h-19.001v82.713h-25.567v-68.057h-118.58v18.585h99.572v49.886H378.057v84.5h140.28v-65.524h25.568v65.526h94.09v-18.583h-75.1l.005-47.33h107.412v65.91h140.28v-152.97h-118.58zM499.33 310.583H397.055v-47.33H499.33v47.33zm291.965 0H689.92v-47.33h101.375v47.33zm-436.487 43.404v-19.885l-55.857-75.216 54.055-59.36h16.703V176.43h-27.227l-56.867 63.568-28.413-39.749-.768-37.204c17.875-4.914 30.983-20.955 30.983-40.012 0-22.956-19.021-41.56-42.494-41.56-23.47 0-42.491 18.604-42.502 41.56.008 18.72 12.656 34.538 30.046 39.75v44.17l37.201 51.051-50.078 53.718h-10.121c-5.252-17.122-21.48-29.599-40.7-29.599-23.47 0-42.491 18.603-42.502 41.56.01 22.96 19.032 41.561 42.502 41.57 19.875-.007 36.555-13.347 41.201-31.374h20.244l53.524-57.566 47.737 64.698.337 12.923c-17.93 4.873-31.092 20.943-31.1 40.034.01 22.96 19.03 41.563 42.502 41.572 23.472-.01 42.493-18.611 42.493-41.572 0-19.022-13.066-35.045-30.899-39.981m-133.03-230.95c.005-12.501 10.363-22.632 23.143-22.632 12.78 0 23.136 10.13 23.136 22.631 0 12.5-10.355 22.628-23.136 22.633-12.78-.005-23.138-10.134-23.143-22.633zm-53.01 223.284c-12.78-.007-23.138-10.135-23.144-22.634.006-12.5 10.363-22.631 23.144-22.631 12.78 0 23.136 10.13 23.136 22.63 0 12.5-10.356 22.628-23.136 22.635zm174.446 70.285c-12.781-.006-23.14-10.135-23.145-22.635.006-12.5 10.364-22.632 23.145-22.632 12.78 0 23.135 10.131 23.135 22.632 0 12.5-10.356 22.629-23.135 22.635zm.19-12.771c5.272 0 9.546-4.186 9.546-9.349s-4.274-9.348-9.545-9.348c-5.272 0-9.545 4.185-9.545 9.348 0 5.163 4.273 9.349 9.545 9.349zm-174.489-70.373c5.272 0 9.545-4.186 9.545-9.349s-4.273-9.349-9.545-9.349c-5.271 0-9.545 4.186-9.545 9.349s4.274 9.349 9.545 9.349zm76.171-200.868c5.272 0 9.545-4.186 9.545-9.349s-4.273-9.349-9.545-9.349c-5.271 0-9.545 4.186-9.545 9.349s4.274 9.349 9.545 9.349z"/><path fill="#77AD0A" d="M970.113 478.387h-29.579l-2.868-9.376c-4.84 7.212-13.265 11.9-27.785 11.9-27.965 0-37.645-9.556-37.645-32.094 0-9.375 2.33-15.866 6.812-20.193 9.321-9.015 27.965-9.556 54.137-9.556 0-6.851-.18-11.9-2.151-14.965-1.614-2.524-4.482-3.606-9.322-3.606-8.784 0-12.728 5.049-12.728 10.998h-31.908c0-11.539 1.972-34.437 43.023-34.437 19.54 0 31.37 3.426 38.362 9.376 10.397 9.015 10.576 23.8 10.576 42.911v21.275l1.076 27.767zm-36.928-26.324v-15.326c-16.492.18-25.097 1.443-25.097 12.441 0 6.49 3.944 10.457 10.935 10.457 5.02 0 11.114-1.262 14.162-7.572zm149.788 26.324h-35.852s.359-52.287.359-55.893c0-8.655-.717-15.867-10.218-15.867-9.143 0-13.983 6.31-16.134 10.818v60.942h-35.852v-71.58l-.896-27.585h29.578l3.226 12.981c3.227-4.327 13.445-15.686 32.985-15.686 23.841 0 33.163 10.638 33.163 42.37 0 4.508-.359 59.5-.359 59.5zm115.613 0h-29.757l-3.048-11.54c-5.915 7.934-15.237 13.883-30.295 13.883-28.323 0-39.079-16.948-39.079-51.746 0-34.617 10.756-52.106 39.08-52.106 12.727 0 21.331 5.409 26.171 9.916V341.36h36.032v107.819l.896 29.209zm-36.748-34.798l-.18-29.029c-2.15-5.048-6.453-10.817-15.775-10.817-9.142 0-12.906 7.211-12.906 25.241 0 17.85 3.764 25.062 12.906 25.062 9.501 0 13.983-5.048 15.955-10.457zm89.978 34.798h-35.852V409.15l-.896-29.93h29.757l3.765 16.769c2.688-7.212 10.755-19.833 34.776-19.833v32.093c-24.38 0-30.295 16.227-31.55 21.816v48.32zm90.285 3.245c-38.542 0-51.27-19.292-51.27-52.828 0-33.355 12.728-52.828 51.27-52.828 38.72 0 51.448 19.473 51.448 52.828 0 33.536-12.728 52.828-51.448 52.828zm-.18-27.045c10.756 0 14.7-5.59 14.7-25.783 0-19.833-3.944-25.783-14.7-25.783-10.755 0-14.699 5.95-14.699 25.783 0 20.194 3.944 25.783 14.7 25.783zm100.26 23.8h-35.852v-99.165h35.852v99.165zm.18-110.164h-35.853v-29.028h35.852v29.028zm115.496 110.164H1528.1l-3.047-11.54c-5.916 7.934-15.238 13.883-30.296 13.883-28.323 0-39.079-16.948-39.079-51.746 0-34.617 10.756-52.106 39.08-52.106 12.727 0 21.331 5.409 26.172 9.916V341.36h36.031v107.819l.896 29.209zm-36.748-34.798l-.18-29.029c-2.15-5.048-6.453-10.817-15.774-10.817-9.143 0-12.907 7.211-12.907 25.241 0 17.85 3.764 25.062 12.907 25.062 9.5 0 13.982-5.048 15.954-10.457z"/></g></svg>